<svg id="Слой_1" data-name="Слой 1" xmlns="http://www.w3.org/2000/svg" xmlns:xlink="http://www.w3.org/1999/xlink" viewBox="0 0 38.37 24.01"><defs><style>.cls-1,.cls-4,.cls-5{fill:none;}.cls-2{clip-path:url(#clip-path);}.cls-3{fill:#00fe9e;}.cls-4,.cls-5{stroke:blue;stroke-linecap:round;stroke-linejoin:round;}.cls-4{stroke-width:1.8px;}.cls-5{stroke-width:1.66px;}</style><clipPath id="clip-path"><rect class="cls-1" width="38.37" height="24.01"/></clipPath></defs><title>Монтажная область 1</title><g class="cls-2"><path class="cls-3" d="M31.16,22.69l5.77.49.62-6.39a6.39,6.39,0,0,0-6.39,6.39"/><path class="cls-3" d="M7.54,22.69l-5.77.49-.61-6.39a6.38,6.38,0,0,1,6.38,6.39"/><path class="cls-3" d="M31.16,1.29l5.77-.5.62,6.39A6.39,6.39,0,0,1,31.16.79"/><path class="cls-3" d="M7.54,1.29,1.77.79,1.16,7.18A6.38,6.38,0,0,0,7.54.79"/><path class="cls-4" d="M24.77,11.83c0,3.62-2.5,6.56-5.58,6.56s-5.59-2.94-5.59-6.56,2.5-6.57,5.59-6.57S24.77,8.2,24.77,11.83Z"/><rect class="cls-5" x="0.83" y="0.83" width="36.72" height="22.35"/><path class="cls-5" d="M31.16.83a6.39,6.39,0,0,0,6.39,6.39"/><path class="cls-5" d="M.83,7.21A6.38,6.38,0,0,0,7.22.83"/><path class="cls-5" d="M.83,16.79a6.39,6.39,0,0,1,6.39,6.39"/><path class="cls-5" d="M37.21,16.79a6.39,6.39,0,0,0-6.38,6.39"/></g></svg>