<svg xmlns="http://www.w3.org/2000/svg" viewBox="0 0 39.54 39.54"><defs><style>.cls-1{fill:aqua;}.cls-2{fill:none;stroke:blue;stroke-linecap:round;stroke-linejoin:round;stroke-width:2px;}</style></defs><title>Ресурс 48</title><g id="Слой_2" data-name="Слой 2"><g id="Layer_1" data-name="Layer 1"><rect class="cls-1" x="1" y="5.9" width="37.54" height="8.16"/><path class="cls-2" d="M27.12,32V19l-3.27,3.27M7.53,1V9.16M32,1V9.16M1,14.06H38.54M36.91,38.54H2.63A1.63,1.63,0,0,1,1,36.91V7.53A1.63,1.63,0,0,1,2.63,5.9H36.91a1.63,1.63,0,0,1,1.63,1.63V36.91A1.63,1.63,0,0,1,36.91,38.54ZM10.79,28.75h0A3.26,3.26,0,0,0,14.06,32h1.63a3.27,3.27,0,0,0,0-6.53h0a3.27,3.27,0,0,0,0-6.53H14.06a3.27,3.27,0,0,0-3.27,3.27"/></g></g></svg>