<svg xmlns="http://www.w3.org/2000/svg" viewBox="0 0 42.81 45.25"><defs><style>.cls-1{fill:aqua;}.cls-2{fill:none;stroke:blue;stroke-linecap:round;stroke-linejoin:round;stroke-width:2px;}</style></defs><title>Ресурс 28</title><g id="Слой_2" data-name="Слой 2"><g id="Layer_1" data-name="Layer 1"><path class="cls-1" d="M15,43.54l25.56,0S39.11,29.65,27.37,31.46,16,39.51,15,43.54"/><path class="cls-2" d="M27.93,31.2h0A13.07,13.07,0,0,0,15,42.4a1.65,1.65,0,0,0,1.64,1.85H39.23a1.64,1.64,0,0,0,1.63-1.85A13.06,13.06,0,0,0,27.93,31.2ZM19,31.43a9.66,9.66,0,0,0-5.74-1.87,9.82,9.82,0,0,0-9.61,7.92,1.61,1.61,0,0,0,1.61,1.88h8M9.35,12.09A1.12,1.12,0,1,1,8.23,11,1.12,1.12,0,0,1,9.35,12.09Zm6.75,10a7.81,7.81,0,0,1-8.37-1.74M19,25.69a12.24,12.24,0,1,1-.43-21.85m18.21,8.51L36,11.61a2.53,2.53,0,0,0-3.57,0l-.73.74m-8.2-.63a1.27,1.27,0,1,1-1.26-1.26A1.26,1.26,0,0,1,23.52,11.72Zm10.66,9.4a8.85,8.85,0,0,1-12.49,0m20.12-6.25A13.88,13.88,0,1,1,27.93,1,13.88,13.88,0,0,1,41.81,14.87Z"/></g></g></svg>