<svg xmlns="http://www.w3.org/2000/svg" viewBox="0 0 23.29 50.97"><defs><style>.cls-1{fill:aqua;}.cls-2{fill:none;stroke:blue;stroke-linecap:round;stroke-linejoin:round;stroke-width:2px;}</style></defs><title>Ресурс 18</title><g id="Слой_2" data-name="Слой 2"><g id="Layer_1" data-name="Layer 1"><path class="cls-1" d="M22.29,9.52A8.52,8.52,0,1,1,13.77,1a8.51,8.51,0,0,1,8.52,8.52"/><path class="cls-2" d="M13.77,43.58A6.39,6.39,0,1,1,1,43.58V39.32m12.77-14.9v4.26m6.39-13.44L18.37,39.33a4.52,4.52,0,0,1-4.51,4.25h0A4.82,4.82,0,0,1,9.34,39L7.39,15.9m14.9-6.38A8.52,8.52,0,1,1,13.77,1,8.51,8.51,0,0,1,22.29,9.52Z"/></g></g></svg>