<svg xmlns="http://www.w3.org/2000/svg" viewBox="0 0 39.54 37.91"><defs><style>.cls-1{fill:aqua;}.cls-2{fill:none;stroke:blue;stroke-linecap:round;stroke-linejoin:round;stroke-width:2px;}</style></defs><title>Ресурс 38</title><g id="Слой_2" data-name="Слой 2"><g id="Layer_1" data-name="Layer 1"><rect class="cls-1" x="10.79" y="28.75" width="17.95" height="8.07"/><path class="cls-2" d="M32,14.06v-.82a12.24,12.24,0,0,0-24.48,0v.82M28.75,28.75h-18m0-1.63v9.79h18V27.12m5.83-13a4.89,4.89,0,0,1,.7,9.42V35.28a1.63,1.63,0,0,1-1.64,1.63H28.75V19A4.9,4.9,0,0,1,34.58,14.14ZM10.79,19.22V36.91H5.9a1.64,1.64,0,0,1-1.64-1.63V23.56a4.89,4.89,0,0,1,1.89-9.5A5.08,5.08,0,0,1,10.79,19.22Z"/></g></g></svg>